Come Join Us AT
     
  http://publichd.org/

Download High Definition Torrents
Movies / TV Shows / Documentaries

-----------------------------------------------------------------
-----------------------------------------------------------------






General
Unique ID : 327678517350505458616002515384216927104 (0xF684963D18FB03279966CC0CA2993B80)
Complete name : Cougar.Town.S03E04.Full.Moon.Fever.720p.WEB-DL.DD5.1.h.264-NTb.mkv
Format : Matroska
Format version : Version 2
File size : 699 MiB
Duration : 21mn 36s
Overall bit rate : 4 524 Kbps
Movie name : Cougar Town S03E04 Full Moon Fever
Encoded date : UTC 2012-03-07 09:57:10
Writing application : mkvmerge v5.3.0 ('I could have danced' built on Feb 11 2012 16:21:29
Writing library : libebml v1.2.2 + libmatroska v1.3.0

Video
ID : 1
Format : AVC
Format/Info : Advanced Video Codec
Format profile : High@L3.1
Format settings, CABAC : No
Format settings, ReFrames : 2 frames
Codec ID : V_MPEG4/ISO/AVC
Duration : 21mn 36s
Bit rate : 4 050 Kbps
Width : 1 280 pixels
Height : 720 pixels
Display aspect ratio : 16:9
Frame rate : 23.976 fps
Color space : YUV
Chroma subsampling : 4:2:0
Bit depth : 8 bits
Scan type : Progressive
Bits/(Pixel*Frame) : 0.183
Stream size : 626 MiB (90%)
Title : h.264
Language : English
Default : Yes
Forced : No
Color primaries : BT.709-5, BT.1361, IEC 61966-2-4, SMPTE RP177
Transfer characteristics : BT.709-5, BT.1361
Matrix coefficients : BT.709-5, BT.1361, IEC 61966-2-4 709, SMPTE RP177

Audio
ID : 2
Format : AC-3
Format/Info : Audio Coding 3
Mode extension : CM (complete main)
Codec ID : A_AC3
Duration : 21mn 36s
Bit rate mode : Constant
Bit rate : 384 Kbps
Channel(s) : 6 channels
Channel positions : Front: L C R, Side: L R, LFE
Sampling rate : 48.0 KHz
Bit depth : 16 bits
Compression mode : Lossy
Stream size : 59.4 MiB (8%)
Title : DD 5.1
Language : English
Default : Yes
Forced : No